<svg t="1732096291371" class="icon" viewBox="0 0 1024 1024" version="1.1" xmlns="http://www.w3.org/2000/svg" p-id="6571" width="200" height="200"><path d="M796.8 792.8H226.4c-8.8 0-16-7.2-16-16V273.6c0-8.8 7.2-16 16-16h570.4c8.8 0 16 7.2 16 16V776c0 9.6-7.2 16.8-16 16.8z m-554.4-32h538.4V289.6H242.4v471.2zM123.2 679.2H20c-8.8 0-16-7.2-16-16V412c0-8.8 7.2-16 16-16h103.2c8.8 0 16 7.2 16 16v251.2c0 8.8-7.2 16-16 16z m-87.2-32h71.2V428H36v219.2z" fill="#303C42" p-id="6572"></path><path d="M226.4 499.2H123.2c-8.8 0-16-7.2-16-16V342.4c0-8.8 7.2-16 16-16h103.2c8.8 0 16 7.2 16 16v140.8c0 8.8-7.2 16-16 16z m-87.2-32h71.2V358.4h-71.2v108.8zM400.8 289.6H307.2c-8.8 0-16-7.2-16-16V180c0-8.8 7.2-16 16-16h93.6c8.8 0 16 7.2 16 16v93.6c0 8.8-7.2 16-16 16z m-77.6-32h61.6v-61.6h-61.6v61.6z" fill="#303C42" p-id="6573"></path><path d="M307.2 196H170.4c-8.8 0-16-7.2-16-16V94.4c0-8.8 7.2-16 16-16h136.8c8.8 0 16 7.2 16 16v85.6c0 8.8-7.2 16-16 16z m-120.8-32h104.8v-53.6H186.4v53.6z" fill="#303C42" p-id="6574"></path><path d="M170.4 265.6h-69.6c-8.8 0-16-7.2-16-16v-69.6c0-8.8 7.2-16 16-16h69.6c8.8 0 16 7.2 16 16v69.6c0 8.8-7.2 16-16 16z m-53.6-32h37.6v-37.6h-37.6v37.6zM388.8 491.2c-37.6 0-68.8-31.2-68.8-68.8s31.2-68.8 68.8-68.8c37.6 0 68.8 31.2 68.8 68.8s-30.4 68.8-68.8 68.8z m0-121.6c-28.8 0-52.8 24-52.8 52.8 0 28.8 24 52.8 52.8 52.8 28.8 0 52.8-24 52.8-52.8 0-28.8-23.2-52.8-52.8-52.8zM1004 679.2h-103.2c-8.8 0-16-7.2-16-16V412c0-8.8 7.2-16 16-16h103.2c8.8 0 16 7.2 16 16v251.2c0 8.8-7.2 16-16 16z m-87.2-32h71.2V428h-71.2v219.2z" fill="#303C42" p-id="6575"></path><path d="M900.8 499.2H797.6c-8.8 0-16-7.2-16-16V342.4c0-8.8 7.2-16 16-16h103.2c8.8 0 16 7.2 16 16v140.8c0 8.8-7.2 16-16 16z m-87.2-32h71.2V358.4h-71.2v108.8zM716.8 289.6H623.2c-8.8 0-16-7.2-16-16V180c0-8.8 7.2-16 16-16h93.6c8.8 0 16 7.2 16 16v93.6c0 8.8-6.4 16-16 16z m-77.6-32h61.6v-61.6h-61.6v61.6z" fill="#303C42" p-id="6576"></path><path d="M853.6 196H716.8c-8.8 0-16-7.2-16-16V94.4c0-8.8 7.2-16 16-16h136.8c8.8 0 16 7.2 16 16v85.6c0 8.8-7.2 16-16 16z m-120.8-32h104.8v-53.6H732.8v53.6z" fill="#303C42" p-id="6577"></path><path d="M923.2 265.6h-69.6c-8.8 0-16-7.2-16-16v-69.6c0-8.8 7.2-16 16-16h69.6c8.8 0 16 7.2 16 16v69.6c0 8.8-6.4 16-16 16z m-53.6-32h37.6v-37.6h-37.6v37.6zM635.2 491.2c-37.6 0-68.8-31.2-68.8-68.8s31.2-68.8 68.8-68.8c37.6 0 68.8 31.2 68.8 68.8s-31.2 68.8-68.8 68.8z m0-121.6c-28.8 0-52.8 24-52.8 52.8 0 28.8 24 52.8 52.8 52.8 28.8 0 52.8-24 52.8-52.8 0-28.8-24-52.8-52.8-52.8zM664 691.2H358.4c-4.8 0-8-3.2-8-8V601.6c0-4.8 3.2-8 8-8H664c4.8 0 8 3.2 8 8v81.6c0 4.8-3.2 8-8 8z m-297.6-16H656v-65.6H366.4v65.6zM700 872h-376c-8.8 0-16-7.2-16-16v-79.2c0-8.8 7.2-16 16-16h376c8.8 0 16 7.2 16 16v79.2c0 8.8-7.2 16-16 16z m-360.8-32h344v-47.2h-344v47.2z" fill="#303C42" p-id="6578"></path><path d="M393.6 945.6H231.2c-8.8 0-16-7.2-16-16V856c0-8.8 7.2-16 16-16h162.4c8.8 0 16 7.2 16 16v73.6c0 8.8-7.2 16-16 16z m-146.4-32h130.4V872H247.2v41.6zM792 945.6H629.6c-8.8 0-16-7.2-16-16V856c0-8.8 7.2-16 16-16H792c8.8 0 16 7.2 16 16v73.6c0 8.8-7.2 16-16 16z m-146.4-32H776V872H645.6v41.6z" fill="#303C42" p-id="6579"></path></svg>